<svg version="1.1" xmlns="http://www.w3.org/2000/svg" xmlns:xlink="http://www.w3.org/1999/xlink" x="0" y="0" width="500" height="556" viewBox="0, 0, 500, 556">
  <defs>
    <linearGradient id="Gradient_1" gradientUnits="userSpaceOnUse" x1="249.64" y1="121.173" x2="249.64" y2="538.229">
      <stop offset="0" stop-color="#EC9239"/>
      <stop offset="0.012" stop-color="#EC9239"/>
      <stop offset="0.236" stop-color="#F1AA60"/>
      <stop offset="0.503" stop-color="#EB8F4A"/>
      <stop offset="1" stop-color="#CB622E"/>
    </linearGradient>
    <clipPath id="Clip_1">
      <path d="M241.329,4.131 C243.758,7.169 246.277,8.18 248.893,8.18 C251.495,8.18 254.193,7.179 256.992,6.178 C259.79,5.177 262.689,4.176 265.695,4.176 C266.005,4.176 266.316,4.187 266.627,4.209 C276.168,27.798 270.587,50.406 274.411,75.528 C276.925,92.158 284.318,108.15 291.876,123.018 C295.788,130.728 301.671,136.441 308.61,140.962 C323.258,150.484 342.599,154.688 358.19,160.933 C382.936,170.86 406.124,184.776 425.924,202.676 C467.746,240.445 490.407,293.648 493.913,349.453 C494.279,355.142 494.435,360.83 494.435,366.529 C494.435,477.471 384.835,550.586 249.64,550.586 C114.445,550.586 4.845,477.471 4.845,366.529 C4.845,359.663 5.075,352.798 5.597,345.952 C9.811,290.923 32.838,238.755 74.318,201.748 C94.049,184.146 117.057,170.459 141.574,160.684 C161.281,152.832 206.583,150.967 217.545,131.177 C222.492,122.227 222.721,107.486 223.224,97.505 C224.049,81.011 224.21,56.87 212.672,43.448 C215.397,44.453 218.302,43.765 220.958,44.888 C219.746,36.113 225.843,28 234.661,28 C235.18,28 235.71,28.028 236.247,28.086 C236.754,19.043 235.221,11.021 241.329,4.131 z M184.655,171.763 C-67.376,281.079 85.651,437.403 85.651,437.403 C79.469,417.027 76.149,397.788 75.05,379.668 C77,381.828 79.414,383.505 81.858,383.505 C82.138,383.505 82.417,383.483 82.697,383.438 C86.618,382.781 87.661,380.901 89.449,380.901 C90.437,380.901 91.652,381.475 93.708,383.15 C95.668,384.727 99.264,389.68 102.301,389.68 C103.053,389.68 103.77,389.376 104.42,388.643 C106.388,386.411 104.167,380.034 106.5,377.036 C110.348,379.717 115.338,384.693 120.285,386.455 C133.561,416.685 152.995,435.445 152.995,435.445 C90.431,276.236 218.991,176.021 218.991,176.021 C195.206,191.07 176.159,206.167 160.958,221.094 C161.1,220.132 161.281,219.17 161.554,218.184 C162.858,213.54 168.903,210.103 167.921,205.342 C167.533,205.296 167.152,205.275 166.777,205.275 C162.425,205.275 158.945,208.137 154.665,208.159 C154.416,204.815 158.6,198.936 160.592,196.529 C154.459,198.946 148.62,202.481 143.312,206.167 C165.583,183.413 184.655,171.763 184.655,171.763 z"/>
    </clipPath>
    <linearGradient id="Gradient_2" gradientUnits="userSpaceOnUse" x1="294.415" y1="196.811" x2="294.415" y2="531.916">
      <stop offset="0" stop-color="#DE822E"/>
      <stop offset="1" stop-color="#BB6231"/>
    </linearGradient>
    <linearGradient id="Gradient_3" gradientUnits="userSpaceOnUse" x1="336.868" y1="196.806" x2="336.868" y2="531.915">
      <stop offset="0" stop-color="#DE822E"/>
      <stop offset="1" stop-color="#BB6231"/>
    </linearGradient>
    <linearGradient id="Gradient_4" gradientUnits="userSpaceOnUse" x1="228.502" y1="196.806" x2="228.502" y2="531.922">
      <stop offset="0" stop-color="#DE822E"/>
      <stop offset="1" stop-color="#BB6231"/>
    </linearGradient>
    <linearGradient id="Gradient_5" gradientUnits="userSpaceOnUse" x1="367.589" y1="196.809" x2="367.589" y2="531.918">
      <stop offset="0" stop-color="#DE822E"/>
      <stop offset="1" stop-color="#BB6231"/>
    </linearGradient>
    <linearGradient id="Gradient_6" gradientUnits="userSpaceOnUse" x1="249.64" y1="121.173" x2="249.64" y2="538.229">
      <stop offset="0" stop-color="#EE9E41"/>
      <stop offset="0.012" stop-color="#EE9E41"/>
      <stop offset="0.236" stop-color="#F2AD58"/>
      <stop offset="0.503" stop-color="#EE9C4B"/>
      <stop offset="1" stop-color="#DA7F37"/>
    </linearGradient>
    <clipPath id="Clip_2">
      <path d="M184.655,171.763 C184.655,171.763 165.583,183.413 143.312,206.167 C148.62,202.481 154.459,198.946 160.592,196.529 C158.6,198.936 154.416,204.815 154.665,208.159 C158.945,208.137 162.425,205.275 166.777,205.275 C167.152,205.275 167.533,205.296 167.921,205.342 C168.903,210.103 162.858,213.54 161.554,218.184 C161.281,219.17 161.1,220.132 160.958,221.094 C176.159,206.167 195.206,191.07 218.991,176.021 C218.991,176.021 90.431,276.236 152.995,435.445 C152.995,435.445 133.561,416.685 120.285,386.455 C115.338,384.693 110.348,379.717 106.5,377.036 C104.167,380.034 106.388,386.411 104.42,388.643 C103.77,389.376 103.053,389.68 102.301,389.68 C99.264,389.68 95.668,384.727 93.708,383.15 C91.652,381.475 90.437,380.901 89.449,380.901 C87.661,380.901 86.618,382.781 82.697,383.438 C82.417,383.483 82.138,383.505 81.858,383.505 C79.414,383.505 77,381.828 75.05,379.668 C76.149,397.788 79.469,417.027 85.651,437.403 C85.651,437.403 -67.376,281.079 184.655,171.763 z"/>
    </clipPath>
    <linearGradient id="Gradient_7" gradientUnits="userSpaceOnUse" x1="192.056" y1="196.805" x2="192.056" y2="531.915">
      <stop offset="0" stop-color="#DE822E"/>
      <stop offset="1" stop-color="#BB6231"/>
    </linearGradient>
    <linearGradient id="Gradient_8" gradientUnits="userSpaceOnUse" x1="149.972" y1="196.804" x2="149.972" y2="531.915">
      <stop offset="0" stop-color="#DE822E"/>
      <stop offset="1" stop-color="#BB6231"/>
    </linearGradient>
    <linearGradient id="Gradient_9" gradientUnits="userSpaceOnUse" x1="119.588" y1="196.81" x2="119.588" y2="531.918">
      <stop offset="0" stop-color="#DE822E"/>
      <stop offset="1" stop-color="#BB6231"/>
    </linearGradient>
  </defs>
  <g id="Layer_1">
    <g clip-path="url(#Clip_1)">
      <path d="M241.329,4.131 C243.758,7.169 246.277,8.18 248.893,8.18 C251.495,8.18 254.193,7.179 256.992,6.178 C259.79,5.177 262.689,4.176 265.695,4.176 C266.005,4.176 266.316,4.187 266.627,4.209 C276.168,27.798 270.587,50.406 274.411,75.528 C276.925,92.158 284.318,108.15 291.876,123.018 C295.788,130.728 301.671,136.441 308.61,140.962 C323.258,150.484 342.599,154.688 358.19,160.933 C382.936,170.86 406.124,184.776 425.924,202.676 C467.746,240.445 490.407,293.648 493.913,349.453 C494.279,355.142 494.435,360.83 494.435,366.529 C494.435,477.471 384.835,550.586 249.64,550.586 C114.445,550.586 4.845,477.471 4.845,366.529 C4.845,359.663 5.075,352.798 5.597,345.952 C9.811,290.923 32.838,238.755 74.318,201.748 C94.049,184.146 117.057,170.459 141.574,160.684 C161.281,152.832 206.583,150.967 217.545,131.177 C222.492,122.227 222.721,107.486 223.224,97.505 C224.049,81.011 224.21,56.87 212.672,43.448 C215.397,44.453 218.302,43.765 220.958,44.888 C219.746,36.113 225.843,28 234.661,28 C235.18,28 235.71,28.028 236.247,28.086 C236.754,19.043 235.221,11.021 241.329,4.131 z M184.655,171.763 C-67.376,281.079 85.651,437.403 85.651,437.403 C79.469,417.027 76.149,397.788 75.05,379.668 C77,381.828 79.414,383.505 81.858,383.505 C82.138,383.505 82.417,383.483 82.697,383.438 C86.618,382.781 87.661,380.901 89.449,380.901 C90.437,380.901 91.652,381.475 93.708,383.15 C95.668,384.727 99.264,389.68 102.301,389.68 C103.053,389.68 103.77,389.376 104.42,388.643 C106.388,386.411 104.167,380.034 106.5,377.036 C110.348,379.717 115.338,384.693 120.285,386.455 C133.561,416.685 152.995,435.445 152.995,435.445 C90.431,276.236 218.991,176.021 218.991,176.021 C195.206,191.07 176.159,206.167 160.958,221.094 C161.1,220.132 161.281,219.17 161.554,218.184 C162.858,213.54 168.903,210.103 167.921,205.342 C167.533,205.296 167.152,205.275 166.777,205.275 C162.425,205.275 158.945,208.137 154.665,208.159 C154.416,204.815 158.6,198.936 160.592,196.529 C154.459,198.946 148.62,202.481 143.312,206.167 C165.583,183.413 184.655,171.763 184.655,171.763 z" fill="url(#Gradient_1)"/>
    </g>
    <path d="M256.647,539.429 C255.617,539.429 254.562,539.063 253.737,538.306 C251.95,536.69 251.813,533.931 253.419,532.149 C315.5,463.565 340.539,340.537 305.06,248.687 C294.757,222.032 281.549,196.211 265.802,171.944 C263.258,168.018 260.241,164.253 257.331,160.616 C255.226,157.984 253.122,155.362 251.173,152.681 C242.843,141.167 244.923,127.115 246.779,114.717 C247.672,108.721 248.517,103.067 248.288,97.857 C247.902,88.692 247.697,79.18 247.487,70.698 C247.238,59.678 247.033,50.166 246.549,45.791 C246.276,43.399 247.99,41.25 250.397,40.987 C252.799,40.713 254.928,42.437 255.202,44.829 C255.729,49.58 255.934,58.804 256.208,70.493 C256.393,78.941 256.623,88.379 256.989,97.491 C257.238,103.535 256.3,109.864 255.387,116.001 C253.644,127.788 251.999,138.936 258.249,147.569 C260.099,150.142 262.116,152.637 264.132,155.166 C267.174,158.98 270.333,162.915 273.126,167.207 C289.171,191.973 310.392,217.271 320.9,244.488 C364.093,356.241 347.179,441.568 259.894,537.998 C259.025,538.946 257.833,539.429 256.647,539.429 z" fill="url(#Gradient_2)"/>
    <path d="M284.757,537.437 C283.405,537.437 282.052,536.807 281.208,535.591 C279.811,533.633 280.27,530.913 282.238,529.527 C327.609,497.422 428.351,410.366 384.01,295.523 C364.577,245.196 323.371,206.695 283.542,169.463 L273.722,160.269 C259.645,147.017 260.124,129.073 260.607,111.709 C260.744,106.856 260.88,101.841 260.719,96.944 C260.626,94.541 262.506,92.515 264.909,92.432 C267.243,92.261 269.347,94.229 269.42,96.636 C269.601,101.807 269.464,106.958 269.328,111.949 C268.844,128.794 268.458,143.355 279.694,153.916 L289.494,163.086 C330.055,200.996 383.073,244.912 403.214,297.09 C435.998,381.983 386.691,466.299 287.272,536.636 C286.52,537.183 285.626,537.437 284.757,537.437 z" fill="url(#Gradient_3)"/>
    <path d="M250.119,535.078 C248.566,535.078 247.189,534.175 246.276,532.779 C154.621,390.176 235.47,151.021 236.11,148.599 C236.754,146.275 239.132,144.888 241.466,145.518 C243.781,146.148 187.926,388.711 253.966,528.658 C254.997,530.83 254.308,533.418 252.179,534.551 C251.515,534.908 250.832,535.078 250.119,535.078 z" fill="url(#Gradient_4)"/>
    <path d="M310.324,532.881 C309.132,530.703 434.987,456.299 438.444,370.445 C444.01,232.193 286.359,159.781 284.64,159.058 C282.331,158.106 281.251,155.474 282.213,153.174 C283.175,150.874 285.807,149.8 288.097,150.747 C289.884,151.494 462.985,226.426 452.892,370.982 C445.724,473.682 311.149,534.38 310.324,532.881 z" fill="url(#Gradient_5)"/>
    <g clip-path="url(#Clip_2)">
      <path d="M184.655,171.763 C184.655,171.763 165.583,183.413 143.312,206.167 C148.62,202.481 154.459,198.946 160.592,196.529 C158.6,198.936 154.416,204.815 154.665,208.159 C158.945,208.137 162.425,205.275 166.777,205.275 C167.152,205.275 167.533,205.296 167.921,205.342 C168.903,210.103 162.858,213.54 161.554,218.184 C161.281,219.17 161.1,220.132 160.958,221.094 C176.159,206.167 195.206,191.07 218.991,176.021 C218.991,176.021 90.431,276.236 152.995,435.445 C152.995,435.445 133.561,416.685 120.285,386.455 C115.338,384.693 110.348,379.717 106.5,377.036 C104.167,380.034 106.388,386.411 104.42,388.643 C103.77,389.376 103.053,389.68 102.301,389.68 C99.264,389.68 95.668,384.727 93.708,383.15 C91.652,381.475 90.437,380.901 89.449,380.901 C87.661,380.901 86.618,382.781 82.697,383.438 C82.417,383.483 82.138,383.505 81.858,383.505 C79.414,383.505 77,381.828 75.05,379.668 C76.149,397.788 79.469,417.027 85.651,437.403 C85.651,437.403 -67.376,281.079 184.655,171.763 z" fill="url(#Gradient_6)"/>
    </g>
    <path d="M235.768,537.437 C234.577,537.437 233.385,536.953 232.541,536.006 C154.894,450.23 122.16,365.249 158.786,270.528 C169.611,242.451 236.569,145.611 238.517,147.017 C240.46,148.423 240.895,151.162 239.499,153.106 C234.967,159.356 188.156,236.773 177.921,263.223 C142.096,355.991 162.633,445.791 238.996,530.157 C240.597,531.944 240.485,534.698 238.698,536.314 C237.853,537.071 236.798,537.437 235.768,537.437 z" fill="url(#Gradient_7)"/>
    <path d="M93.112,294.571 C114.86,243.033 162.541,200.996 203.102,163.086 C203.102,163.086 217.409,152.349 219.059,154.102 C220.705,155.865 132.003,250.406 112.57,300.733 C68.229,415.576 212.785,533.633 211.388,535.591 C210.543,536.792 33.546,435.913 93.112,294.571 z" fill="url(#Gradient_8)"/>
    <path d="M34.259,370.982 C32.174,212.246 203.971,150.884 204.933,153.174 C205.895,155.464 38.815,230.684 51.403,368.384 C56.852,428.072 178.014,530.703 176.803,532.881 C175.978,534.38 35.563,470.225 34.259,370.982 z" fill="url(#Gradient_9)"/>
    <path d="M493.913,349.453 C490.407,293.648 467.746,240.445 425.924,202.676 C406.125,184.776 382.936,170.86 358.19,160.933 C342.599,154.688 323.258,150.484 308.61,140.962 C301.671,136.441 295.788,130.728 291.876,123.018 C284.318,108.15 276.925,92.158 274.411,75.528 C270.587,50.406 276.168,27.798 266.627,4.209 C262.711,3.936 259,5.484 255.456,6.729 C250.441,8.491 257.238,108.169 264.796,123.052 C268.708,130.752 274.591,136.465 281.53,140.987 C296.178,150.508 308.859,154.688 324.45,160.933 C349.171,170.86 372.36,184.776 392.184,202.676 C434.005,240.445 458.454,295.533 461.979,351.343 C462.321,357.032 462.506,362.72 462.506,368.418 C462.506,474.702 360.089,544.336 232.77,550.161 C238.356,550.415 243.961,550.586 249.64,550.586 C384.835,550.586 494.435,477.471 494.435,366.529 C494.435,360.83 494.279,355.142 493.913,349.453" fill="#CE642D"/>
    <path d="M284.596,548.433 C285.26,548.125 285.875,547.725 286.447,547.212 C288.83,544.991 288.439,543.824 285.075,542.08 C285.348,540.528 286.999,539.048 288.419,538.34 C288.395,534.185 282.921,534.595 280.153,533.784 C278.805,533.384 276.764,532.764 275.783,531.758 C275.28,531.231 273.605,526.206 272.736,526.529 C267.541,528.531 262.736,531.162 258.18,527.354 C257.101,526.446 254.928,523.701 253.463,523.584 C251.701,523.438 250.9,525.542 249.528,526.241 C248.585,526.724 247.511,526.529 246.505,526.802 C242.887,527.774 239.386,529.39 235.539,529.068 C232.677,528.819 229.816,526.861 227.643,529.239 C225.49,531.577 227.277,534.541 224.596,535.572 C222.423,536.407 217.57,534.014 216.037,535.171 C214.23,536.529 215.211,540.503 215.05,542.378 C209.259,541.992 214.411,547.212 215.509,548.96 C226.657,550.015 238.058,550.586 249.64,550.586 C258.087,550.586 266.559,550.288 274.982,549.693 C278.161,549.478 281.779,549.761 284.596,548.433" fill="#F6C070"/>
    <path d="M231.715,550.127 C237.624,550.425 243.595,550.586 249.64,550.586 C256.256,550.586 262.78,550.366 269.259,550.015 C269.098,545.22 259.987,541.348 250.304,541.348 C240.578,541.348 231.715,545.274 231.715,550.127" fill="#FAD79E"/>
  </g>
</svg>
